<svg width="106" height="205" viewBox="0 0 106 205" fill="none" xmlns="http://www.w3.org/2000/svg">
<path fill-rule="evenodd" clip-rule="evenodd" d="M40.9606 122.593C37.7736 119.525 36.1827 115.789 36.1827 111.386C36.1827 106.986 37.7459 103.307 40.8732 100.353C44.0014 97.3998 47.9973 95.9231 52.8617 95.9231C57.727 95.9231 61.7229 97.3998 64.8502 100.353C67.9783 103.307 69.5416 106.986 69.5416 111.386C69.5416 115.789 67.9481 119.525 64.7637 122.593C61.5767 125.663 57.6102 127.196 52.8617 127.196C48.1115 127.196 44.145 125.663 40.9606 122.593ZM43.741 68.6441C46.4609 64.7087 50.4299 60.3651 55.6421 55.614C59.4649 52.139 62.2714 49.2158 64.069 46.8394C65.8632 44.4664 66.762 41.7734 66.762 38.7603C66.762 34.4771 65.0518 31.0877 61.6363 28.5963C58.2184 26.1074 53.6715 24.8608 47.9973 24.8608C42.5515 24.8608 37.7165 25.9898 33.4896 28.2494C29.2602 30.5073 25.6986 33.6648 22.804 37.7178L1.78046 25.3816C6.64574 17.9703 13.2187 12.2373 21.5011 8.18092C29.781 4.12792 39.5981 2.10016 50.9515 2.10016C64.2697 2.10016 74.9554 4.9402 83.0076 10.6136C91.0565 16.2903 95.0826 24.1653 95.0826 34.2428C95.0826 38.9946 94.3006 43.1636 92.7373 46.7529C91.1733 50.3439 89.2623 53.3847 87.0035 55.8744C84.7447 58.3667 81.8182 61.2336 78.2289 64.4752C73.9423 68.2972 70.815 71.511 68.8469 74.1176C66.8763 76.7241 65.8935 79.8808 65.8935 83.5869H39.6577C39.6577 77.5658 41.0177 72.5837 43.741 68.6441Z" fill="#F6F6F6"/>
<mask id="mask0" style="mask-type:alpha" maskUnits="userSpaceOnUse" x="0" y="0" width="97" height="123">
<path fill-rule="evenodd" clip-rule="evenodd" d="M0.000244141 0.839996H96.3424V122.983H0.000244141V0.839996Z" fill="white"/>
</mask>
<g mask="url(#mask0)">
<path fill-rule="evenodd" clip-rule="evenodd" d="M40.9385 82.3272H64.6702C64.8768 78.8832 65.9411 75.871 67.8412 73.3577C69.8488 70.6999 73.0618 67.3945 77.3903 63.5339C80.9351 60.3327 83.8574 57.4691 86.07 55.0281C88.2246 52.6525 90.0793 49.6991 91.5812 46.2492C93.068 42.8371 93.8224 38.7976 93.8224 34.2431C93.8224 24.5125 90.0466 17.1205 82.2808 11.6437C74.4805 6.14678 63.9394 3.35966 50.9504 3.35966C39.8465 3.35966 30.1235 5.36222 22.0553 9.31274C14.4306 13.0457 8.22048 18.3117 3.57612 24.9754L22.4644 36.0575C25.338 32.2993 28.8425 29.3022 32.8955 27.1375C37.2862 24.7906 42.3673 23.6011 47.997 23.6011C53.9156 23.6011 58.754 24.9393 62.3778 27.5777C66.1225 30.3102 68.0218 34.0726 68.0218 38.7606C68.0218 42.0383 67.0297 45.0127 65.0734 47.5999C63.2354 50.0292 60.3467 53.0389 56.4894 56.5459C51.3679 61.2147 47.4266 65.5264 44.7764 69.361C42.406 72.7907 41.1166 77.1478 40.9385 82.3272ZM67.1532 84.8472H38.3975V83.5872C38.3975 77.3301 39.8465 72.0616 42.7042 67.9279C45.4619 63.9371 49.53 59.4801 54.7926 54.6828C58.5373 51.2791 61.3194 48.3845 63.0632 46.0795C64.7038 43.9098 65.5018 41.5158 65.5018 38.7606C65.5018 34.8681 63.994 31.876 60.8935 29.6139C57.7108 27.2963 53.3713 26.1211 47.997 26.1211C42.7856 26.1211 38.1043 27.2106 34.0832 29.3602C30.047 31.5156 26.5972 34.5732 23.8294 38.4498L23.1599 39.3873L0.000244141 25.7986L0.726844 24.6906C5.6946 17.1222 12.4978 11.1876 20.9465 7.04894C29.3641 2.92874 39.4584 0.839661 50.9504 0.839661C64.4694 0.839661 75.4994 3.78218 83.7331 9.58406C92.0995 15.4842 96.3424 23.7809 96.3424 34.2431C96.3424 39.1462 95.5175 43.5243 93.8921 47.2564C92.2801 50.9574 90.2759 54.1419 87.9365 56.7215C85.6685 59.2239 82.6865 62.1471 79.0728 65.4096C74.861 69.1661 71.7606 72.3497 69.8513 74.8764C68.0612 77.2452 67.1532 80.176 67.1532 83.5872V84.8472ZM52.8614 91.71C48.2885 91.71 44.6496 93.0465 41.7382 95.7966C38.8477 98.5266 37.4424 101.835 37.4424 105.913C37.4424 109.999 38.8788 113.368 41.8339 116.212L41.8348 116.213C44.8016 119.073 48.4086 120.463 52.8614 120.463C57.3126 120.463 60.9204 119.073 63.8898 116.213C66.8449 113.365 68.2813 109.996 68.2813 105.913C68.2813 101.835 66.876 98.5266 63.9856 95.7966C61.0741 93.0465 57.4352 91.71 52.8614 91.71ZM52.8614 122.983C47.7954 122.983 43.4971 121.317 40.0859 118.027C36.6595 114.729 34.9224 110.653 34.9224 105.913C34.9224 101.171 36.6335 97.1507 40.0086 93.9646C43.3619 90.7961 47.687 89.19 52.8614 89.19C58.0367 89.19 62.361 90.7961 65.7151 93.9646C69.0902 97.1507 70.8013 101.172 70.8013 105.913C70.8013 110.65 69.0642 114.726 65.6378 118.027C62.2241 121.317 57.9258 122.983 52.8614 122.983Z" fill="#DBDBDB"/>
</g>
<path fill-rule="evenodd" clip-rule="evenodd" d="M103.438 148.274C103.438 136.679 99.483 126.009 92.8478 117.537H13.6862C7.39043 125.888 3.65747 137.01 3.65747 148.274C3.65747 168.373 15.5494 185.685 32.6761 193.587H31.8823V202.855H75.212V193.587H74.4191C91.5458 185.685 103.438 168.373 103.438 148.274Z" fill="#F6F6F6"/>
<mask id="mask1" style="mask-type:alpha" maskUnits="userSpaceOnUse" x="2" y="116" width="103" height="89">
<path fill-rule="evenodd" clip-rule="evenodd" d="M2.39691 116.277H104.698V204.115H2.39691V116.277Z" fill="white"/>
</mask>
<g mask="url(#mask1)">
<path fill-rule="evenodd" clip-rule="evenodd" d="M33.1426 201.595H73.9523V194.847H68.6805L73.891 192.443C91.0749 184.515 102.178 167.177 102.178 148.273C102.178 137.5 98.7399 127.322 92.229 118.797H14.3199C8.33739 126.975 4.91691 137.679 4.91691 148.273C4.91691 167.177 16.02 184.515 33.2039 192.443L38.4144 194.847H33.1426V201.595ZM76.4723 204.115H30.6226V193.996C13.4211 185.354 2.39691 167.592 2.39691 148.273C2.39691 136.926 6.14499 125.446 12.6802 116.779L13.0582 116.277H93.4613L93.8402 116.76C100.943 125.83 104.698 136.727 104.698 148.273C104.698 167.592 93.6738 185.354 76.4723 193.996V204.115Z" fill="#DBDBDB"/>
</g>
<mask id="mask2" style="mask-type:alpha" maskUnits="userSpaceOnUse" x="0" y="0" width="105" height="205">
<path fill-rule="evenodd" clip-rule="evenodd" d="M0 204.115H104.698V0.839996H0V204.115Z" fill="white"/>
</mask>
<g mask="url(#mask2)">
<path fill-rule="evenodd" clip-rule="evenodd" d="M3.41211 138.927H103.678V136.407H3.41211V138.927Z" fill="#DBDBDB"/>
<path fill-rule="evenodd" clip-rule="evenodd" d="M3.41211 152.348H103.678V149.828H3.41211V152.348Z" fill="#DBDBDB"/>
<path fill-rule="evenodd" clip-rule="evenodd" d="M90.2314 53.4785C90.2314 53.4785 91.7636 64.3196 84.858 71.9476C77.9532 79.5756 66.6652 79.5126 66.6652 79.5126L66.514 79.3757C66.514 79.3757 65.3296 68.1491 72.2353 60.5211C79.1401 52.893 90.0802 53.3416 90.0802 53.3416L90.2314 53.4785Z" fill="#F6F6F6"/>
<path fill-rule="evenodd" clip-rule="evenodd" d="M89.0687 54.613C86.3446 54.7222 78.4317 55.553 73.1691 61.3675C67.9191 67.1668 67.6327 75.34 67.7108 78.2044C70.5693 77.9978 78.6737 76.9024 83.9237 71.1022C89.2031 65.2701 89.2358 57.3313 89.0687 54.613ZM66.6869 80.7723H66.6575L66.1761 80.7698L65.3109 79.9869L65.2605 79.5073C65.2093 79.0259 64.1005 67.6297 71.301 59.6757C78.5199 51.7016 89.6609 52.0611 90.1321 52.0829L90.5874 52.1014L91.4148 52.8507L91.4795 53.3018C91.545 53.7688 93.01 64.819 85.7918 72.794C78.7006 80.627 67.4874 80.7723 66.6869 80.7723Z" fill="#DBDBDB"/>
<path fill-rule="evenodd" clip-rule="evenodd" d="M66.6651 79.5124L83.3357 61.0971L66.6651 79.5124Z" fill="#F6F6F6"/>
<path fill-rule="evenodd" clip-rule="evenodd" d="M66.6643 80.7724C66.3628 80.7724 66.0604 80.6649 65.8193 80.4465C65.3035 79.9794 65.2641 79.1823 65.7311 78.6665L82.4009 60.2512C82.8679 59.7363 83.6651 59.6951 84.1809 60.163C84.6966 60.63 84.7361 61.4263 84.2691 61.9421L67.5984 80.3583C67.3498 80.6321 67.0079 80.7724 66.6643 80.7724Z" fill="#DBDBDB"/>
<path fill-rule="evenodd" clip-rule="evenodd" d="M73.3232 73.5601C73.2888 73.5601 73.2543 73.5593 73.2199 73.5559C72.5269 73.4997 72.0103 72.8923 72.0657 72.1985L72.6873 64.536C72.7428 63.8422 73.3476 63.3214 74.0448 63.3819C74.7386 63.4381 75.2552 64.0455 75.1989 64.7393L74.5782 72.4018C74.5244 73.0612 73.9734 73.5601 73.3232 73.5601Z" fill="#DBDBDB"/>
<path fill-rule="evenodd" clip-rule="evenodd" d="M77.3406 69.6354C76.6947 69.6354 76.1445 69.1415 76.0865 68.4863C76.026 67.7933 76.5376 67.1818 77.2314 67.1204L83.5877 66.5585C84.2774 66.5022 84.8922 67.0104 84.9536 67.7034C85.014 68.3964 84.5016 69.0079 83.8086 69.0692L77.4524 69.6304C77.4146 69.6337 77.3776 69.6354 77.3406 69.6354Z" fill="#DBDBDB"/>
<path fill-rule="evenodd" clip-rule="evenodd" d="M42.3547 33.9112C42.3547 33.9112 50.4515 41.2814 50.0021 51.5613C49.5527 61.8404 40.8201 68.9938 40.8201 68.9938L40.6168 68.9854C40.6168 68.9854 32.5419 61.097 32.9921 50.8171C33.4415 40.538 42.1506 33.902 42.1506 33.902L42.3547 33.9112Z" fill="#F6F6F6"/>
<path fill-rule="evenodd" clip-rule="evenodd" d="M42.1816 35.528C40.1513 37.3517 34.593 43.0402 34.2503 50.8723C33.9076 58.7137 38.9014 65.1716 40.7897 67.3204C42.8586 65.3388 48.401 59.3236 48.7428 51.5057C49.0856 43.6735 44.0439 37.5222 42.1816 35.528ZM41.2458 70.2738L40.0799 70.2226L39.7355 69.8857C39.3894 69.548 31.2641 61.4807 31.7328 50.7623C32.2032 40.017 41.0123 33.1853 41.387 32.8997L41.7498 32.6233L42.8654 32.6729L43.2022 32.9795C43.5508 33.2962 51.7307 40.8704 51.2603 51.6157C50.7916 62.335 41.9926 69.6623 41.6188 69.968L41.2458 70.2738Z" fill="#DBDBDB"/>
<path fill-rule="evenodd" clip-rule="evenodd" d="M40.8203 68.9939L41.9056 44.1778L40.8203 68.9939Z" fill="#F6F6F6"/>
<path fill-rule="evenodd" clip-rule="evenodd" d="M40.8211 70.2539C40.8027 70.2539 40.7842 70.2539 40.7657 70.2531C40.0702 70.222 39.5309 69.634 39.5611 68.9393L40.6464 44.1223C40.6775 43.4277 41.2571 42.8968 41.9602 42.9186C42.6557 42.9489 43.195 43.5369 43.1647 44.2324L42.0795 69.0485C42.0492 69.7255 41.4915 70.2539 40.8211 70.2539Z" fill="#DBDBDB"/>
<path fill-rule="evenodd" clip-rule="evenodd" d="M41.3453 60.4528C40.948 60.4528 40.5574 60.2655 40.3121 59.916L35.9013 53.6202C35.5023 53.0499 35.64 52.2645 36.2104 51.8646C36.7816 51.4648 37.5653 51.6042 37.9651 52.1737L42.376 58.4695C42.775 59.0399 42.6372 59.8253 42.0669 60.2251C41.8468 60.3789 41.5948 60.4528 41.3453 60.4528Z" fill="#DBDBDB"/>
<path fill-rule="evenodd" clip-rule="evenodd" d="M41.9351 54.8661C41.61 54.8661 41.2858 54.7418 41.0397 54.4923C40.55 53.9975 40.5542 53.2004 41.0489 52.7107L45.5849 48.2217C46.0797 47.7328 46.8768 47.7362 47.3666 48.2318C47.8563 48.7257 47.8521 49.5237 47.3573 50.0134L42.8213 54.5015C42.576 54.7443 42.2552 54.8661 41.9351 54.8661Z" fill="#DBDBDB"/>
<path fill-rule="evenodd" clip-rule="evenodd" d="M60.32 10.1512C60.32 10.1512 67.2895 13.796 68.8502 21.0208C70.4118 28.2457 65.6481 34.8069 65.6481 34.8069L65.5053 34.838C65.5053 34.838 58.4569 30.8287 56.8962 23.6047C55.3346 16.3798 60.1764 10.1823 60.1764 10.1823L60.32 10.1512Z" fill="#F6F6F6"/>
<path fill-rule="evenodd" clip-rule="evenodd" d="M60.601 11.7972C59.4468 13.6351 57.0301 18.2593 58.128 23.338C59.2234 28.4065 63.3545 31.827 65.2143 33.1416C66.3634 31.1777 68.7145 26.3561 67.6192 21.2867C66.5221 16.2097 62.4129 12.9959 60.601 11.7972ZM65.2999 36.1707L64.8825 35.9329C64.5742 35.7582 57.3258 31.5574 55.6643 23.8705C53.9977 16.1577 58.9714 9.67874 59.1839 9.40658L59.4636 9.0479L60.4985 8.82278L60.9042 9.03446C61.21 9.1949 68.4155 13.0421 70.0829 20.755C71.7436 28.441 66.8766 35.2609 66.6683 35.5474L66.3852 35.938L65.2999 36.1707Z" fill="#DBDBDB"/>
<path fill-rule="evenodd" clip-rule="evenodd" d="M65.6484 34.807L60.8007 17.5551L65.6484 34.807Z" fill="#F6F6F6"/>
<path fill-rule="evenodd" clip-rule="evenodd" d="M65.6479 36.0678C65.0977 36.0678 64.592 35.704 64.4358 35.148L59.5881 17.896C59.4 17.2266 59.7906 16.5302 60.4601 16.3429C61.1304 16.1514 61.8268 16.5445 62.0141 17.2148L66.8617 34.4667C67.0499 35.1362 66.6593 35.8326 65.9898 36.0199C65.8755 36.0526 65.7605 36.0678 65.6479 36.0678Z" fill="#DBDBDB"/>
<path fill-rule="evenodd" clip-rule="evenodd" d="M64.2218 30.0361C64.0739 30.0361 63.9236 30.01 63.7774 29.9546C63.1264 29.7085 62.798 28.9819 63.0433 28.3309L64.7308 23.8604C64.9761 23.2102 65.7027 22.8793 66.3545 23.1271C67.0055 23.3723 67.334 24.0998 67.0887 24.7508L65.4011 29.2204C65.2105 29.7253 64.7308 30.0361 64.2218 30.0361Z" fill="#DBDBDB"/>
</g>
</svg>
